<?xml version="1.0" encoding="UTF-8"?>
<svg xmlns="http://www.w3.org/2000/svg" xmlns:xlink="http://www.w3.org/1999/xlink" version="1.1" id="Layer_1" x="0px" y="0px" viewBox="0 0 205 45" style="enable-background:new 0 0 205 45;" xml:space="preserve">
<style type="text/css">
	.st0{fill:url(#SVGID_1_);}
	.st1{fill:#FDCA57;}
</style>
<linearGradient id="SVGID_1_" gradientUnits="userSpaceOnUse" x1="-4142.8647" y1="-2125.894" x2="-4022.9241" y2="-2362.0659" gradientTransform="matrix(0.1189 0 0 -0.1189 501.9987 -236.653)">
	<stop offset="0" style="stop-color:#704710"></stop>
	<stop offset="1.616747e-02" style="stop-color:#7B5113"></stop>
	<stop offset="8.788302e-02" style="stop-color:#A87B22"></stop>
	<stop offset="0.1568" style="stop-color:#CC9C2D"></stop>
	<stop offset="0.2212" style="stop-color:#E5B435"></stop>
	<stop offset="0.2795" style="stop-color:#F5C239"></stop>
	<stop offset="0.3262" style="stop-color:#FAC73B"></stop>
	<stop offset="0.4833" style="stop-color:#FEDB6B"></stop>
	<stop offset="0.4856" style="stop-color:#FEDA69"></stop>
	<stop offset="0.5198" style="stop-color:#FCD050"></stop>
	<stop offset="0.5509" style="stop-color:#FAC940"></stop>
	<stop offset="0.5758" style="stop-color:#FAC73B"></stop>
	<stop offset="0.659" style="stop-color:#AD7D25"></stop>
	<stop offset="0.6995" style="stop-color:#8C5E1C"></stop>
	<stop offset="0.7012" style="stop-color:#8D5F1D"></stop>
	<stop offset="0.751" style="stop-color:#B58532"></stop>
	<stop offset="0.7966" style="stop-color:#D1A041"></stop>
	<stop offset="0.8363" style="stop-color:#E3B14A"></stop>
	<stop offset="0.8654" style="stop-color:#E9B74D"></stop>
	<stop offset="1" style="stop-color:#FDCA57"></stop>
</linearGradient>
<path class="st0" d="M35.1,44.2v-1.7l1.9,0.3v-0.2l0,0v-0.6l0,0v-0.1l-1.9-0.3v-1.3l0,0l1.9,0.7v-0.2l0,0l0,0v-0.6l0,0l0,0V40  l-1.9-0.7l0,0V23.4L30.7,26V11.8l-9-11.4v10.2l-0.1-0.1l-8,8v9.2l-5.4-3.1v14.9l-1.5,1v1l0,0l1.5-1v1.6l-1.5,0.6v1l1.5-0.6v1.1l0,0  h-8v0.6h43.4v-0.6L35.1,44.2L35.1,44.2z M14.6,36.5l1.8-1.2v3.2v0.6v0.1l-1.8,0.7V36.5z M17.2,39.5v-0.7v-0.2v-4.2l0,0v-1.2l0,0  v-2.4l1.8,1v6.3v0.5v0.1v0.8v4.6h-1.8v-4.5V39.5z M21.7,34.7l-1.8-0.6v-1.7l1.8,1V34.7z M22.6,36l11.6,4l0,0v1.5l-11.6-2.1L22.6,36  L22.6,36z M19.9,35l1.8,0.6v3.6l-1.8-0.3V35z M19.9,39.8l1.8,0.3v4.1h-1.8V39.8z M22.6,40.3l11.6,2.1v1.9H22.6L22.6,40.3L22.6,40.3z   M28,9.9l1.8,2.3v14.4l-1.8,1V9.9z M25.3,6.4l1.8,2.3v19.4l-1.8,1V6.4z M22.6,3l1.8,2.3v24.4l-1.8,1V3z M34.2,25v14l0,0l-11.6-4  v-3.3L34.2,25z M14.6,18.9l2.7-2.7l1.8-1.8l0.9-0.9l1.8-1.8v20.6l-0.9-0.5l-0.9-0.5L19,30.8l-1.8-1l-0.9-0.5l-1.8-1L14.6,18.9  L14.6,18.9z M16.3,30.3V33l0,0v0.6l0,0v0.6l-1.8,1.2v-6.1L16.3,30.3z M13.6,28.8V36l-1.8,1.2v-9.4L13.6,28.8z M9.2,26.2l1.8,1v10.5  l-1.8,1.2V26.2z M9.2,40l4.5-2.9v3.1l-4.5,1.7V40z M16.3,40.1v4.1H9.2v-1.4L16.3,40.1z"></path>
<g>
	<path class="st1" d="M46.3,21.5h4.2l2,11.7c0.4,2.5,0.8,4.9,1.2,7.4h0.1c0.5-2.5,1-5,1.5-7.4l2.9-11.7h3.6l2.9,11.7   c0.5,2.4,1,4.9,1.5,7.4h0.1c0.4-2.5,0.7-5,1.1-7.4l2-11.7h4L69,44.8h-5.1L61,32.5c-0.4-1.8-0.7-3.6-1-5.3h-0.1   c-0.3,1.8-0.7,3.5-1.1,5.3l-2.8,12.2h-5L46.3,21.5z"></path>
	<path class="st1" d="M77.1,21.5h14V25h-9.9v6h8.4v3.5h-8.4v6.9h10.2v3.5H77.1V21.5z"></path>
	<path class="st1" d="M96.2,21.5h4.1v19.8h9.7v3.5H96.2V21.5z"></path>
	<path class="st1" d="M114,21.5h4.7l4.1,11.4c0.5,1.5,1,3,1.5,4.6h0.1c0.5-1.5,1-3.1,1.5-4.6l4-11.4h4.7v23.2h-3.8V34.1   c0-2.1,0.3-5.2,0.5-7.4h-0.1l-1.9,5.4l-3.8,10.4H123l-3.8-10.4l-1.8-5.4h-0.1c0.2,2.2,0.5,5.2,0.5,7.4v10.6H114V21.5z"></path>
	<path class="st1" d="M139.3,33.1c0-7.5,4.2-12,10.3-12c6.1,0,10.3,4.5,10.3,12c0,7.5-4.2,12.1-10.3,12.1   C143.5,45.2,139.3,40.6,139.3,33.1z M155.5,33.1c0-5.2-2.4-8.4-6-8.4c-3.7,0-6,3.2-6,8.4c0,5.2,2.4,8.6,6,8.6   C153.2,41.6,155.5,38.3,155.5,33.1z"></path>
	<path class="st1" d="M164.5,21.5h7.8c4.8,0,8.6,1.7,8.6,6.9c0,5-3.7,7.3-8.6,7.3h-3.7v9.1h-4.1V21.5z M171.9,32.4   c3.2,0,4.9-1.3,4.9-4c0-2.7-1.7-3.6-4.9-3.6h-3.3v7.6H171.9z M171.5,34.6l3-2.5l7.3,12.6h-4.6L171.5,34.6z"></path>
	<path class="st1" d="M189.8,21.5h4.8l7.6,23.2h-4.4l-3.5-12.4c-0.7-2.5-1.4-5.1-2.1-7.7h-0.1c-0.6,2.6-1.3,5.2-2.1,7.7l-3.6,12.4   h-4.2L189.8,21.5z M186.7,35.2h10.9v3.2h-10.9V35.2z"></path>
</g>
</svg>
